<svg xmlns="http://www.w3.org/2000/svg" viewBox="0 0 48 48" id="dartboard-small" aria-hidden="true" role="none" data-supported-dps="48x48" width="48" height="48">
  <path d="M24 0C10.75 0 0 10.75 0 24s10.75 24 24 24 24-10.75 24-24S37.25 0 24 0z" fill="#c0d1e2"/>
  <path d="M24 2C11.85 2 2 11.85 2 24s9.85 22 22 22 22-9.85 22-22S36.15 2 24 2z" fill="#fff"/>
  <path d="M24 6C14.06 6 6 14.06 6 24s8.06 18 18 18 18-8.06 18-18S33.94 6 24 6z" fill="#56687a"/>
  <path d="M24 8C15.16 8 8 15.16 8 24s7.16 16 16 16 16-7.16 16-16S32.84 8 24 8z" fill="#fff"/>
  <path d="M24 12c-6.63 0-12 5.37-12 12s5.37 12 12 12 12-5.37 12-12-5.37-12-12-12z" fill="#fdc2b1"/>
  <circle cx="24" cy="24" r="10" fill="#fff"/>
  <path d="M24 18c-3.31 0-6 2.69-6 6s2.69 6 6 6 6-2.69 6-6-2.69-6-6-6z" fill="#f5987e"/>
  <circle cx="24" cy="24" r="4" fill="#fff"/>
  <path fill="#56687a" d="M32.64 14L24 22.73v2.83l10-10.1L32.64 14z"/>
  <path d="M46.57 7.43l-4-2-2-3.95a.762.762 0 00-1-.36c-.14.07-.25.17-.33.3l-9 14.35c-.37.58-.29 1.34.19 1.83.5.47 1.26.53 1.83.15L46.63 8.8c.37-.23.48-.72.25-1.09a.76.76 0 00-.31-.28z" fill="#f5987e"/>
</svg>
